<svg width="35" height="21" viewBox="0 0 35 21" fill="none" xmlns="http://www.w3.org/2000/svg">
<path fill-rule="evenodd" clip-rule="evenodd" d="M0.5 2.57184C0.5 1.19534 1.61587 0.0794678 2.99237 0.0794678H32.5076C33.8841 0.0794678 35 1.19534 35 2.57184C35 3.94834 33.8841 5.06421 32.5076 5.06421H2.99237C1.61587 5.06421 0.5 3.94834 0.5 2.57184ZM8.5 9.99646C8.5 8.61996 9.61587 7.50409 10.9924 7.50409H32.5076C33.8841 7.50409 35 8.61996 35 9.99646C35 11.373 33.8841 12.4888 32.5076 12.4888H10.9924C9.61587 12.4888 8.5 11.373 8.5 9.99646ZM6.22186 15.5045C4.84536 15.5045 3.72949 16.6204 3.72949 17.9969C3.72949 19.3734 4.84536 20.4893 6.22186 20.4893H32.5077C33.8842 20.4893 35.0001 19.3734 35.0001 17.9969C35.0001 16.6204 33.8842 15.5045 32.5077 15.5045H6.22186Z" fill="black"/>
</svg>
