<svg width="151" height="238" viewBox="0 0 151 238" fill="none" xmlns="http://www.w3.org/2000/svg">
<path d="M0.0199505 197.565C0.56816 187.697 8.42583 181.849 12.446 173.444C18.1109 161.566 8.06035 151.515 21.0346 139.82C34.0089 128.308 27.4304 123.008 35.1054 113.689C42.963 104.369 58.8611 107.11 58.8611 107.11H91.3882C91.3882 107.11 107.286 104.369 115.144 113.689C123.002 123.008 116.24 128.308 129.215 139.82C142.189 151.332 132.138 161.383 137.803 173.444C140.179 178.377 144.016 182.215 146.757 186.966C159.914 208.346 139.813 235.208 116.789 235.208C116.789 235.208 33.278 235.208 33.0952 235.208C17.5627 240.508 6.41573 238.498 8.60856 224.792C10.4359 214.925 -0.528259 207.25 0.0199505 197.565Z" fill="#2DBB54"/>
<path d="M75.3073 90.8466L91.0227 88.2883C91.0227 88.2883 91.0227 108.938 91.0227 123.374C91.0227 137.262 76.4037 140.551 75.3073 140.916C74.2109 140.734 59.7747 137.444 59.7747 123.556C59.7747 109.12 59.7747 88.4711 59.7747 88.4711L75.3073 90.8466Z" fill="#F9D3B7"/>
<path d="M75.3074 68.9183L59.592 66.36C59.592 66.36 59.592 87.0092 59.592 101.445C59.592 108.389 63.2468 112.775 66.9015 115.333C70.5562 117.892 74.9419 118.988 79.5103 118.805C83.5305 118.623 88.8299 116.795 90.4745 113.14C91.5709 110.582 90.84 106.562 90.84 101.628C90.84 87.1919 90.84 66.5427 90.84 66.5427L75.3074 68.9183Z" fill="#F7B7A1"/>
<path d="M104.545 61.4261C104.545 61.4261 104.728 58.685 110.21 57.5886C115.692 56.4922 117.702 75.314 107.652 77.3241C97.6013 79.3342 98.6977 65.4463 104.545 61.4261Z" fill="#F4C19F"/>
<path d="M53.5618 71.6593C53.5618 71.6593 52.2826 69.101 46.8005 70.1974C41.3184 71.2938 46.8005 89.3847 56.6683 87.3746C66.7188 85.5472 60.323 73.1212 53.5618 71.6593Z" fill="#F4C19F"/>
<path d="M86.8198 107.658C101.987 104.552 111.855 89.7502 108.748 74.7658L104.545 53.9338C101.439 38.7667 86.6371 28.8989 71.6527 32.0055C56.4855 35.112 46.6178 49.9136 49.7243 64.898L53.9272 85.73C56.851 100.714 71.6527 110.765 86.8198 107.658Z" fill="#F9D3B7"/>
<path d="M57.582 83.3545C55.9374 74.9486 66.9016 75.4968 79.6931 72.9385C92.6674 70.3802 102.535 65.629 104.18 74.0349C105.824 82.4408 93.7639 76.045 80.7896 78.786C68.1808 81.3444 59.4094 91.9431 57.582 83.3545Z" fill="#F7B7A1"/>
<path d="M39.6738 63.6189C46.9833 53.7511 42.4149 54.4821 43.5113 44.6143C44.6077 34.7466 55.2064 26.3407 55.2064 26.3407C55.2064 26.3407 44.9732 17.9348 52.2826 11.9045C59.5921 5.69146 66.9016 7.33609 66.9016 7.33609C66.9016 7.33609 73.6628 -5.08999 86.4544 2.4022C97.4185 8.79798 91.571 17.3866 87.1853 21.2241C91.0228 22.686 99.0632 26.3407 102.718 32.7365C107.652 41.3251 103.449 43.1524 113.865 49.3655C124.281 55.7613 103.266 65.8118 108.931 73.4867C114.596 81.1616 110.758 85.5473 110.758 85.5473C110.758 85.5473 112.037 79.1515 106.19 76.4105C100.342 73.6694 98.1495 69.101 103.266 59.5987C108.2 50.2792 73.2973 58.8678 63.795 39.6804C62.5159 61.0606 45.5214 62.157 53.7445 68.9183C61.9677 75.6795 61.7849 80.7961 57.3993 85.5473C53.0136 90.2984 56.6683 95.7805 56.6683 95.7805C56.6683 95.7805 51.369 93.2222 53.7445 83.9027C55.7546 74.7658 32.3644 73.6694 39.6738 63.6189Z" fill="#081E29"/>
<path d="M93.9464 62.7052C93.9464 62.7052 88.8298 64.3498 83.5305 61.0605" stroke="#081E29" stroke-width="2.06821" stroke-miterlimit="10" stroke-linecap="round" stroke-linejoin="round"/>
<path d="M63.2468 68.9182C63.2468 68.9182 68.5461 68.37 72.2009 63.4361" stroke="#081E29" stroke-width="2.06821" stroke-miterlimit="10" stroke-linecap="round" stroke-linejoin="round"/>
<path d="M71.2872 72.9385C71.47 74.0349 70.739 75.1313 69.6426 75.4968C68.5462 75.6795 67.4498 74.9486 67.0843 73.8522C66.9016 72.7557 67.6325 71.6593 68.7289 71.2939C70.0081 71.1111 71.1045 71.8421 71.2872 72.9385Z" fill="#081E29"/>
<path d="M92.3019 68.7354C92.4846 69.8319 91.7537 70.9283 90.6573 71.2938C89.5609 71.4765 88.4644 70.7455 88.099 69.6491C87.9162 68.5527 88.6472 67.4563 89.7436 67.0908C90.84 66.9081 91.9364 67.639 92.3019 68.7354Z" fill="#081E29"/>
<path d="M80.4241 88.8366C80.2413 88.1056 80.2413 87.3747 80.2413 86.6437C80.2413 83.9027 83.5306 83.1717 84.627 85.73C84.9925 86.461 85.1752 87.0092 85.358 87.7401C85.7234 88.8366 85.7234 89.933 85.5407 90.6639C85.1752 92.8568 82.6169 93.405 81.3378 91.5776C80.9723 90.8467 80.6068 89.933 80.4241 88.8366Z" fill="#081E29"/>
<path d="M78.5967 67.0909C78.5967 67.0909 86.0889 78.6033 81.155 79.517" stroke="#081E29" stroke-width="1.03411" stroke-miterlimit="10" stroke-linecap="round" stroke-linejoin="round"/>
<path d="M98.1494 153.891L92.1191 118.988C92.1191 118.988 87.5507 115.882 87.9162 107.476C88.2816 99.0698 85.7233 95.2323 83.3478 92.3085C81.5204 90.4812 84.8096 87.1919 90.4745 99.8007C88.6471 89.202 83.5305 87.5574 84.0787 86.2782C84.8096 84.9991 89.7435 86.6437 92.85 96.146C91.5709 86.6437 85.7233 83.5372 86.637 82.0753C87.9162 80.0652 95.7738 87.3746 95.9566 97.0597C97.6012 87.3746 90.8399 83.3544 91.9364 81.1616C93.0328 78.9687 101.256 88.8365 99.794 102.542C102.17 98.1561 99.0631 92.1258 101.073 91.3948C103.083 90.6639 106.921 104.552 99.794 117.526C103.997 130.135 112.403 149.322 112.403 149.322L98.1494 153.891Z" fill="#F9C4A0"/>
<path d="M128.849 232.833C128.849 232.833 144.93 225.158 139.631 203.23C134.697 182.215 136.341 147.495 113.865 139.089C112.22 138.358 110.21 138.724 108.748 139.82C104.545 142.927 99.4286 143.658 96.3221 143.84C94.1293 143.84 92.3019 145.302 91.571 147.312C89.5609 152.612 86.6371 163.941 89.9263 180.205C94.6775 203.595 87.5508 230.275 104.18 234.66C120.626 239.046 128.849 232.833 128.849 232.833Z" fill="#45E471"/>
<path d="M61.0539 99.4352C61.0539 99.4352 71.4699 111.496 86.8197 107.658" stroke="#081E29" stroke-width="1.03411" stroke-miterlimit="10" stroke-linecap="round" stroke-linejoin="round"/>
</svg>
