<svg width="68" height="72" viewBox="0 0 68 72" fill="none" xmlns="http://www.w3.org/2000/svg">
<path d="M34.0736 0C28.2359 0 24.7417 0.886154 22.5206 1.99108C21.4087 2.54492 20.6192 3.12646 20.0883 3.72185C19.5546 4.31723 19.2182 5.19231 19.2182 5.19231C19.1311 5.41471 19.0731 5.64741 19.0459 5.88462L17.567 24.8372C17.5475 24.9535 17.5865 25.1418 17.567 25.2692L17.3947 27.1745C17.3785 27.3467 17.3785 27.5201 17.3947 27.6923C17.3947 36.8308 24.9002 44.3077 34.0736 44.3077C43.247 44.3077 50.7525 36.8308 50.7525 27.6923V27.2603C50.7529 27.2317 50.7529 27.2031 50.7525 27.1745L49.1012 5.88462C49.074 5.64741 49.0161 5.41471 48.9289 5.19231C48.9289 5.19231 48.5925 4.31723 48.0588 3.72185C47.5279 3.12369 46.7384 2.54215 45.6265 1.99108C43.4054 0.883385 39.9112 0 34.0736 0ZM34.0736 44.3077C15.7268 44.3077 0.715759 52.9089 0.715759 60.6628V72H67.4314V60.6628C67.4314 53.2966 53.8603 45.1828 36.7672 44.3935C35.8706 44.3346 34.9722 44.306 34.0736 44.3077ZM34.0736 5.53846C39.3552 5.53846 41.9933 6.36923 43.108 6.92308C43.4805 7.10862 43.5249 7.18062 43.6306 7.26923L44.7592 21.4615C42.2017 21.6166 38.7159 22.1538 34.0736 22.1538C29.4313 22.1538 25.9482 21.6166 23.3879 21.4615L24.5166 7.26923C24.6194 7.18062 24.6667 7.10862 25.0392 6.92308C26.1539 6.36923 28.7919 5.53846 34.0736 5.53846ZM31.8136 8.30769V11.5975H28.5139V16.0975H31.8163V19.3846H36.3308V16.0948H39.6332V11.5975H36.3308V8.30769H31.8163H31.8136ZM25.7341 50.5385L32.8588 66.4615H6.27539V60.6628C6.27539 58.5997 13.3639 52.5572 25.7341 50.5385ZM42.413 50.5385C54.7832 52.56 61.8717 58.5997 61.8717 60.6628V66.4615H35.2883L42.413 50.5385Z" fill="#1D957F"/>
</svg>
