<svg width="88" height="72" viewBox="0 0 88 72" fill="none" xmlns="http://www.w3.org/2000/svg">
<path d="M24.05 0C17.6734 0 11.558 2.50203 7.04913 6.95567C2.54022 11.4093 0.00714111 17.4497 0.00714111 23.7481C0.00714111 25.907 0.40057 28.066 0.968856 30.2249H18.8043L24.356 15.6738C25.6674 12.2195 30.8257 11.8741 32.4869 15.6738L41.5357 38.8606L44.1149 32.7292C44.6831 31.3043 46.2131 30.2249 48.0929 30.2249H86.474C87.0423 28.066 87.4357 25.907 87.4357 23.7481C87.4357 17.4497 84.9026 11.4093 80.3937 6.95567C75.8848 2.50203 69.7694 0 63.3929 0C55.262 0 48.0929 4.01559 43.7214 10.1037C39.35 4.01559 32.1809 0 24.05 0ZM4.37857 36.7016C3.21919 36.7016 2.1073 37.1566 1.2875 37.9663C0.467701 38.7761 0.00714111 39.8743 0.00714111 41.0195C0.00714111 42.1647 0.467701 43.2629 1.2875 44.0727C2.1073 44.8824 3.21919 45.3373 4.37857 45.3373H15.0449L39.35 69.0855C43.7214 72.9715 43.7214 72.9715 48.0929 69.0855L72.398 45.3373H83.0643C84.2237 45.3373 85.3355 44.8824 86.1553 44.0727C86.9752 43.2629 87.4357 42.1647 87.4357 41.0195C87.4357 39.8743 86.9752 38.7761 86.1553 37.9663C85.3355 37.1566 84.2237 36.7016 83.0643 36.7016H49.8414L45.776 46.6327C44.0274 50.9937 39.0003 50.3892 37.3829 46.7622L28.4214 23.7481L24.2249 33.8087C23.5691 35.4495 22.0829 36.7016 20.1157 36.7016H4.37857Z" fill="#1D957F"/>
</svg>
