<svg width="66" height="72" viewBox="0 0 66 72" fill="none" xmlns="http://www.w3.org/2000/svg">
<path d="M65.14 25.2H43.7114V72H36.5685V50.4H29.4257V72H22.2828V25.2H0.854248V18H65.14V25.2ZM32.9971 0C34.8915 0 36.7083 0.758569 38.0479 2.10883C39.3874 3.45909 40.14 5.29044 40.14 7.2C40.14 9.10956 39.3874 10.9409 38.0479 12.2912C36.7083 13.6414 34.8915 14.4 32.9971 14.4C31.1027 14.4 29.2859 13.6414 27.9463 12.2912C26.6068 10.9409 25.8542 9.10956 25.8542 7.2C25.8542 3.204 29.0328 0 32.9971 0Z" fill="#1D957F"/>
</svg>
